PathFileType	4	(X/Y/Z)	C:\Users\Basilio\Documents\Thesis Gigler\squatting_fais\c3dfiles\047\SLS_pre_front5\markers_experimental.trc
DataRate	CameraRate	NumFrames	NumMarkers	Units	OrigDataRate	OrigDataStartFrame	OrigNumFrames
200.000000	200.000000	4	60	mm	200.000000	591	1183
Frame#	Time	FHD			LBHD			RBHD			C7			T10			CLAV			LSHO			LUUPA			LMUPA			LDUPA			LLEP			LMEP			LRAD			LUL			LRFIN			RSHO			RUPA1			RMUPA			RDUPA			RLEP			RMEP			RRAD			RUL			RUFIN			LASI			RASI			USACR			LSACR			RSACR			LTHI1			LTHI2			LTHI3			LTHI4			LLFC			LMFC			LTIB1			LTIB2			LTIB3			LTIB4			LLMAL			LMMAL			LMT1			LMT2			LMT5			RTHI			RTHI2			RTHI3			RTHI4			RLFC			RMFC			RTIB1			RTIB2			RTIB3			RTIB4			RLMAL			RMMAL			RHEE			RMT1			RMT2			RMT5			
		X1	Y1	Z1	X2	Y2	Z2	X3	Y3	Z3	X4	Y4	Z4	X5	Y5	Z5	X6	Y6	Z6	X7	Y7	Z7	X8	Y8	Z8	X9	Y9	Z9	X10	Y10	Z10	X11	Y11	Z11	X12	Y12	Z12	X13	Y13	Z13	X14	Y14	Z14	X15	Y15	Z15	X16	Y16	Z16	X17	Y17	Z17	X18	Y18	Z18	X19	Y19	Z19	X20	Y20	Z20	X21	Y21	Z21	X22	Y22	Z22	X23	Y23	Z23	X24	Y24	Z24	X25	Y25	Z25	X26	Y26	Z26	X27	Y27	Z27	X28	Y28	Z28	X29	Y29	Z29	X30	Y30	Z30	X31	Y31	Z31	X32	Y32	Z32	X33	Y33	Z33	X34	Y34	Z34	X35	Y35	Z35	X36	Y36	Z36	X37	Y37	Z37	X38	Y38	Z38	X39	Y39	Z39	X40	Y40	Z40	X41	Y41	Z41	X42	Y42	Z42	X43	Y43	Z43	X44	Y44	Z44	X45	Y45	Z45	X46	Y46	Z46	X47	Y47	Z47	X48	Y48	Z48	X49	Y49	Z49	X50	Y50	Z50	X51	Y51	Z51	X52	Y52	Z52	X53	Y53	Z53	X54	Y54	Z54	X55	Y55	Z55	X56	Y56	Z56	X57	Y57	Z57	X58	Y58	Z58	X59	Y59	Z59	X60	Y60	Z60	

592	2.955	-71.08986663818361	1393.838745117188	-1093.92236328125	-250.9405670166016	1376.38671875	-1123.053344726563	-231.4320068359376	1379.440795898438	-975.9831542968752	-308.1401062011719	1221.203369140625	-1050.061767578125	-439.0807189941407	953.4680175781252	-1007.431579589844	-177.4436340332032	1126.909057617188	-1071.837280273438	-245.3049926757813	1188.022827148438	-1207.941284179688	-165.7973785400391	1114.749267578125	-1340.401245117188	-132.4618225097657	1152.328735351563	-1332.535766601563	-100.6980895996094	1115.92529296875	-1365.235229492188	-37.91532135009766	1130.560791015625	-1382.564208984375	-15.72994899749756	1068.032470703125	-1342.288940429688	230.4232635498047	1111.396484375	-1377.656005859375	217.812484741211	1133.278930664063	-1450.777465820313	309.2875061035157	1137.880126953125	-1400.140258789063	-201.2941131591797	1197.182495117188	-930.730651855469	-79.99051666259767	1129.442626953125	-818.551696777344	-49.59172821044923	1158.679077148438	-844.8938598632815	-11.3808012008667	1119.200439453125	-820.138122558594	57.19960784912111	1123.995483398438	-830.8491821289065	55.72114944458009	1052.808837890625	-869.3631591796877	312.1807556152344	1082.206298828125	-900.0726318359377	314.1428527832032	1107.902221679688	-832.026794433594	394.9900817871095	1100.260498046875	-898.0922851562502	-340.4096679687501	705.1955566406251	-1083.34716796875	-328.8018188476563	740.2418212890626	-859.0179443359377	-506.3676147460939	814.6775512695315	-974.7786865234377	-523.9521484375001	783.847106933594	-999.0443115234377	-516.8643798828126	786.1204223632815	-943.320739746094	-353.9540710449219	589.0946655273439	-1156.4208984375	-270.1817016601563	579.0655517578126	-1161.634399414063	-245.6317596435547	619.7343750000001	-1149.03515625	-239.7913360595704	527.8212280273439	-1166.104858398438	-116.0750427246094	421.7814025878907	-1145.146728515625	-75.19773101806642	440.0765380859376	-1018.371643066406	-152.300765991211	277.6793518066407	-1024.5234375	-182.8176422119141	230.3841094970704	-1089.937255859375	-171.4089660644532	226.0296783447266	-1044.308715820313	-228.7847900390626	178.6997833251953	-1008.50732421875	-322.8554992675782	114.1205596923828	-1052.768310546875	-298.2021484375001	137.6116790771485	-965.606872558594	-190.598388671875	61.66085052490236	-977.9608154296877	-188.1949920654297	58.76314544677736	-1022.823547363281	-237.8026428222657	43.91667556762696	-1067.417114257813	-318.0562744140626	590.5146484375001	-757.6116943359376	-251.8086547851563	587.2042846679689	-766.4375000000001	-234.8761596679688	612.4270629882814	-777.9423828125002	-205.1640167236329	518.4788208007814	-772.184020996094	-84.69689941406251	439.3561401367189	-802.330505371094	-76.88047790527345	444.384246826172	-926.6016235351565	31.46883773803712	379.8283691406251	-831.4088134765627	57.03327941894533	282.5070800781251	-787.3928222656252	83.05641174316408	312.7028808593751	-810.6198730468752	120.0314712524414	285.7249755859376	-846.8667602539065	192.6164093017579	142.608139038086	-815.1116943359377	189.9500732421875	161.538070678711	-905.345642089844	163.533920288086	75.95724487304689	-859.0659790039065	337.5225830078126	183.0176696777344	-909.5690917968752	342.2932434082032	195.3420562744141	-866.5462036132815	327.3364562988282	153.3506164550782	-804.606384277344	
593	2.96	-71.11814880371095	1393.759887695313	-1094.082885742188	-250.6979064941407	1376.316650390625	-1123.015747070313	-231.0473175048829	1379.466430664063	-976.0462646484377	-307.9299621582032	1221.304321289063	-1050.033813476563	-438.8852844238282	953.5187988281252	-1007.308471679688	-177.3279571533203	1126.910522460938	-1071.774536132813	-245.0259246826172	1188.090454101563	-1207.888671875	-165.5737609863282	1114.787841796875	-1340.354125976563	-132.4727325439453	1152.374877929688	-1332.474853515625	-100.6311264038086	1116.00830078125	-1365.202392578125	-37.80197906494141	1130.580322265625	-1382.567260742188	-15.59342861175537	1068.15869140625	-1342.304321289063	230.6688842773438	1111.580932617188	-1377.806762695313	217.8094787597657	1133.489013671875	-1450.876953125	309.4086303710938	1138.112060546875	-1400.26416015625	-200.8157348632813	1197.299682617188	-930.8323974609377	-79.77317810058595	1129.494262695313	-818.3284301757815	-49.20035934448244	1158.804443359375	-845.017761230469	-11.0886754989624	1119.3837890625	-820.1729736328127	57.46237182617189	1124.398315429688	-831.1685180664065	55.99043655395509	1052.91748046875	-869.274108886719	312.5218505859376	1082.267578125	-900.058044433594	314.4534912109376	1108.004516601563	-832.0109863281252	395.4855346679689	1100.658325195313	-898.2122192382815	-340.2250061035157	705.2781372070314	-1083.260864257813	-328.7367553710938	740.2603149414064	-858.9140625000002	-506.2260131835939	814.7504882812502	-974.7473754882815	-523.8320922851564	784.0178833007815	-998.9587402343752	-516.6660766601564	786.196228027344	-943.328063964844	-353.9259948730469	589.1212768554689	-1156.39990234375	-270.1466064453126	579.1769409179689	-1161.576293945313	-245.571762084961	619.7343750000001	-1148.98583984375	-239.7780456542969	527.8154907226564	-1166.068481445313	-116.0292129516602	421.7982482910157	-1145.06640625	-75.3026580810547	440.0599365234376	-1018.197082519531	-152.2830352783203	277.7499694824219	-1024.302490234375	-182.7061614990235	230.2780914306641	-1089.762817382813	-171.3376617431641	225.9979248046876	-1044.140380859375	-228.7413177490235	178.6836242675782	-1008.408081054688	-322.9888916015626	113.9338302612305	-1052.753173828125	-298.1882629394532	137.5884857177735	-965.4440917968752	-190.5729217529297	61.58598709106447	-977.9526977539065	-188.1392669677735	58.77813720703126	-1022.743286132813	-237.7874755859376	44.01947784423829	-1067.347778320313	-318.0554504394532	590.3963623046876	-757.5745239257814	-251.7430725097657	587.0537719726564	-766.3916625976564	-234.7616424560547	612.2698974609376	-777.8306274414065	-205.3071441650391	518.1096191406251	-772.0628051757815	-84.85836791992189	439.1836547851564	-802.173767089844	-76.74368286132814	444.0239562988282	-926.6694335937502	31.41900253295899	379.7683715820313	-831.3784179687502	56.83068847656251	282.4616088867188	-787.7332763671877	83.04771423339845	312.5939941406251	-810.6651000976565	120.0073699951172	285.5607299804688	-847.0717773437502	192.3662261962891	142.0218963623047	-815.2087402343752	190.3424987792969	162.1736297607422	-905.4898071289065	163.4664764404297	75.62780761718751	-859.238464355469	337.1664733886719	182.6959838867188	-909.6963500976565	342.0560607910157	195.2498626708985	-866.8083496093752	327.1526489257813	152.9740753173828	-804.7932739257815	
594	2.965	-70.9509735107422	1393.846557617188	-1094.093505859375	-250.4309387207032	1376.27685546875	-1123.035034179688	-230.6162261962891	1379.5322265625	-976.0618286132815	-307.8028259277344	1221.334716796875	-1049.893432617188	-438.7004394531251	953.5465087890627	-1007.354736328125	-177.2270965576172	1126.887939453125	-1071.70947265625	-244.834701538086	1188.175048828125	-1207.820434570313	-165.4143218994141	1114.820556640625	-1340.337036132813	-132.3838500976563	1152.44482421875	-1332.460815429688	-100.5065994262696	1116.117431640625	-1365.168579101563	-37.63426971435548	1130.612060546875	-1382.594482421875	-15.35148239135743	1068.274780273438	-1342.248046875	230.7251281738282	1111.8955078125	-1377.792114257813	217.9066467285157	1133.716430664063	-1450.952270507813	309.4804382324219	1138.36572265625	-1400.316772460938	-200.4195404052735	1197.2958984375	-930.9776000976565	-79.29436492919923	1129.6865234375	-818.335144042969	-49.05250549316408	1158.906982421875	-844.9562988281252	-11.01415252685547	1119.238525390625	-820.6989746093752	57.67330551147462	1124.490966796875	-831.1322021484377	56.36292266845705	1052.986328125	-869.3243408203127	312.7521057128907	1082.316650390625	-899.9622802734377	314.8439941406251	1108.27978515625	-832.0494384765627	395.7181091308595	1100.852661132813	-898.112243652344	-340.0180664062501	705.3148803710939	-1083.174682617188	-328.6111450195313	740.3045043945314	-858.8200683593752	-506.0738220214845	814.8252563476565	-974.6709594726565	-523.7198486328126	784.0623779296877	-998.9079589843752	-516.3959960937501	786.2336425781252	-943.3191528320315	-353.8269653320313	589.1179809570314	-1156.394409179688	-270.0925903320313	579.1802978515626	-1161.550659179688	-245.5174713134766	619.6771850585939	-1148.876342773438	-239.6631927490235	527.8410644531251	-1165.979858398438	-115.9441986083985	421.7991638183595	-1144.962524414063	-75.31857299804689	440.1019592285157	-1018.071716308594	-152.2928009033203	277.7669372558594	-1024.14501953125	-182.69921875	230.001205444336	-1089.510131835938	-171.2262268066407	225.8962402343751	-1043.87109375	-228.7342987060547	178.6571502685547	-1008.256652832031	-322.8317871093751	114.1536102294922	-1052.617797851563	-298.2264099121094	137.4201812744141	-965.2569580078127	-190.5024871826172	61.49802017211915	-977.9209594726565	-188.3127593994141	58.71727371215822	-1022.634704589844	-237.7138977050782	44.14866638183594	-1067.33984375	-317.9688720703126	590.2955322265626	-757.5615234375001	-251.6544799804688	586.9190673828126	-766.2615356445314	-234.7324829101563	612.1332397460939	-777.7463378906252	-205.3369445800782	518.1075439453126	-772.1667480468752	-84.90746307373048	439.0852355957032	-802.1385498046877	-76.7239227294922	443.9719543457032	-926.6365966796877	31.37727928161622	379.6921081542969	-831.4324951171877	56.77931213378908	282.2726135253907	-787.907409667969	83.06036376953126	312.4350891113282	-810.7421875000002	119.9423446655274	285.4518127441407	-847.134948730469	192.2886657714844	141.7523956298828	-815.4682617187502	190.143310546875	161.9892578125	-905.591735839844	163.4317474365235	75.28684234619142	-859.388122558594	336.9151916503907	182.2270812988282	-909.8093872070315	341.7763366699219	194.880844116211	-866.7702636718752	326.6519775390626	152.6501770019532	-804.9505004882815	
595	2.97	-70.67282104492189	1393.985229492188	-1094.163208007813	-250.2728576660157	1376.212158203125	-1122.947875976563	-230.2562255859376	1379.574829101563	-976.118103027344	-307.6300354003907	1221.33251953125	-1049.8203125	-438.4473571777345	953.6499633789065	-1007.325744628906	-177.1161193847657	1126.920043945313	-1071.65771484375	-244.6385955810547	1188.291748046875	-1207.774169921875	-165.2008666992188	1114.912719726563	-1340.308349609375	-132.2406311035157	1152.571655273438	-1332.49609375	-100.342758178711	1116.242797851563	-1365.270629882813	-37.52938461303712	1130.739135742188	-1382.593627929688	-15.19179248809815	1068.348266601563	-1342.270263671875	230.9194335937501	1112.119384765625	-1377.86083984375	217.966537475586	1133.887451171875	-1451.046630859375	309.6292724609376	1138.616821289063	-1400.498168945313	-200.1795806884766	1197.411987304688	-930.9176025390627	-79.0011672973633	1129.847290039063	-818.3106689453127	-48.92989349365236	1158.96142578125	-844.8854980468752	-10.85905265808106	1119.28662109375	-820.5821533203127	58.00169754028322	1124.800659179688	-831.0865478515627	56.67164230346681	1053.094116210938	-869.2141113281252	312.9909057617188	1082.477172851563	-899.9536132812502	315.1213073730469	1108.483276367188	-832.0253906250002	395.9573364257814	1100.808227539063	-897.846130371094	-340.0333251953126	704.8193359375001	-1082.987670898438	-328.5254516601563	740.3228759765626	-858.7463378906252	-505.8687438964845	814.902282714844	-974.660583496094	-523.5531616210939	784.0450439453127	-998.8610839843752	-516.2933349609376	786.3914794921877	-943.2749633789065	-353.7973327636719	589.1663208007814	-1156.327392578125	-270.0425415039063	579.1557617187501	-1161.484985351563	-245.0118713378907	619.4332885742189	-1148.8828125	-239.6782836914063	527.8427734375001	-1165.912475585938	-115.8796997070313	421.810028076172	-1144.855712890625	-75.42347717285158	440.0853271484376	-1017.897155761719	-152.3485107421875	277.7167358398438	-1023.694519042969	-182.7313232421875	229.8618316650391	-1089.251586914063	-171.2860260009766	226.2546691894532	-1043.177734375	-228.5930938720704	178.3961639404297	-1008.436157226563	-322.9100646972657	114.2446365356446	-1052.555297851563	-298.3488464355469	137.4967956542969	-965.0700683593752	-190.5003662109375	61.47703933715822	-977.835144042969	-188.4226684570313	58.72907638549806	-1022.540832519531	-237.704818725586	44.3399772644043	-1067.258178710938	-317.9477233886719	590.1967773437501	-757.6105957031251	-251.6432495117188	586.8118896484376	-766.1162719726564	-234.7317199707032	612.0223999023439	-777.5247802734377	-205.4052734375001	517.8717041015626	-772.2126464843752	-84.93202209472658	439.0291748046876	-802.070007324219	-76.80039978027345	444.352020263672	-926.529479980469	31.35629653930665	379.6303405761719	-831.4340820312502	56.79313278198244	282.1457824707032	-787.8922119140627	83.09042358398439	312.3064575195313	-810.8581542968752	119.991683959961	285.3247985839844	-847.3306884765627	192.3137512207032	141.4846954345703	-815.3741455078127	189.4126739501953	160.9424133300782	-905.6123657226565	163.180419921875	75.16592407226564	-859.440124511719	336.8348693847657	182.0451812744141	-910.028503417969	341.7520751953126	194.5337829589844	-866.9443359375002	326.5954589843751	152.3022003173828	-804.9705810546877	
